<svg id="Layer_1" data-name="Layer 1" xmlns="http://www.w3.org/2000/svg" viewBox="0 0 197.53 177.15"><defs><style>.cls-1{font-size:27.84px;}.cls-1,.cls-10,.cls-11,.cls-12,.cls-13,.cls-14,.cls-15,.cls-16,.cls-17,.cls-18,.cls-19,.cls-2,.cls-20,.cls-21,.cls-22,.cls-23,.cls-24,.cls-25,.cls-26,.cls-27,.cls-28,.cls-29,.cls-3,.cls-30,.cls-31,.cls-32,.cls-34,.cls-35,.cls-36,.cls-37,.cls-4,.cls-40,.cls-5,.cls-6,.cls-7,.cls-8,.cls-9{fill:#231f20;}.cls-1,.cls-11,.cls-13,.cls-14,.cls-15,.cls-16,.cls-18,.cls-2,.cls-22,.cls-24,.cls-25,.cls-26,.cls-28,.cls-3,.cls-34,.cls-36,.cls-4,.cls-8,.cls-9{font-family:ToneDeafBB, ToneDeaf BB;}.cls-2{font-size:30.9px;}.cls-3{font-size:39.25px;}.cls-4{font-size:43.34px;}.cls-11,.cls-5{font-size:25.81px;}.cls-10,.cls-12,.cls-17,.cls-19,.cls-20,.cls-21,.cls-23,.cls-27,.cls-29,.cls-30,.cls-31,.cls-32,.cls-35,.cls-5,.cls-6,.cls-7{font-family:Musicelements, Musicelements;}.cls-6{font-size:21.59px;}.cls-7{font-size:25.81px;}.cls-8{font-size:47.31px;}.cls-9{font-size:35.03px;}.cls-10{font-size:34.31px;}.cls-12{font-size:28.11px;}.cls-13{font-size:36.07px;}.cls-14{font-size:31.53px;}.cls-15{font-size:31.22px;}.cls-16{font-size:39.43px;}.cls-17{font-size:25.81px;}.cls-18{font-size:25.81px;}.cls-19{font-size:14.98px;}.cls-20{font-size:22.12px;}.cls-21{font-size:17.46px;}.cls-22{font-size:27.84px;}.cls-23{font-size:17.04px;}.cls-24{font-size:17.82px;}.cls-25{font-size:16.59px;}.cls-26{font-size:16.07px;}.cls-27{font-size:22.12px;}.cls-28{font-size:39.43px;}.cls-29{font-size:11.51px;}.cls-30{font-size:13.19px;}.cls-31{font-size:18.59px;}.cls-32{font-size:10.45px;}.cls-33{fill:none;}.cls-33,.cls-37{stroke:#231f20;}.cls-33,.cls-37,.cls-39,.cls-40,.cls-43,.cls-44{stroke-miterlimit:10;}.cls-34{font-size:32.99px;}.cls-35{font-size:22.08px;}.cls-36{font-size:24.22px;}.cls-37,.cls-39,.cls-40,.cls-43{font-size:16.88px;font-family:RusshellFreeRegular, Russhell Free;}.cls-37{stroke-width:4px;}.cls-38{letter-spacing:0.04em;}.cls-39,.cls-43,.cls-44{fill:#fff;stroke:#fff;}.cls-39{stroke-width:2px;}.cls-40{stroke:#c04884;}.cls-40,.cls-44{stroke-width:0.5px;}.cls-41{letter-spacing:0.02em;}.cls-42{letter-spacing:0em;}.cls-43{stroke-width:1.5px;}</style></defs><title>heart</title><text class="cls-1" transform="translate(129.32 109.99) rotate(-37.38) scale(1.53 1)">l</text><text class="cls-2" transform="translate(183.34 56.76) scale(1.13 1)">o</text><text class="cls-3" transform="translate(47.89 52.91) rotate(-33.28) scale(1.19 1)">w</text><text class="cls-4" transform="translate(66.92 35.85) rotate(-17.6)">s</text><text class="cls-5" transform="translate(78.65 120.58)">o</text><text class="cls-6" transform="translate(137.03 57.79) scale(1.03 1)">p</text><text class="cls-7" transform="matrix(0.75, 0.66, -0.66, 0.75, 163.77, 80.82)">y</text><text class="cls-5" transform="translate(129.66 94.16)">j</text><text class="cls-8" transform="matrix(-0.47, 0.73, -0.84, -0.54, 135.37, 123.21)">g</text><text class="cls-9" transform="translate(111.81 169.58)">c</text><text class="cls-10" transform="matrix(0.16, -0.99, 0.99, 0.16, 179.74, 41.76)">t</text><text class="cls-11" transform="translate(100.16 63.43)">y</text><text class="cls-11" transform="translate(74.35 117.51)">x</text><text class="cls-11" transform="translate(136.42 115.05)">z</text><text class="cls-12" transform="translate(120.85 65.51) rotate(-14.32)">q</text><text class="cls-11" transform="translate(47.93 73.26)">a</text><text class="cls-5" transform="translate(103.31 77.88)">s</text><text class="cls-13" transform="translate(84.18 72.24)">p</text><text class="cls-14" transform="translate(170.05 114.83)">c</text><text class="cls-15" transform="matrix(0.87, 0.5, -0.5, 0.87, 82.82, 50.37)">q</text><text class="cls-16" transform="matrix(0.8, -0.6, 0.6, 0.8, 65.95, 119.44)">e</text><text class="cls-17" transform="translate(104.96 157.97) rotate(-40.39)">h</text><text class="cls-5" transform="translate(57.15 98.46)">l</text><text class="cls-18" transform="matrix(0.53, 0.85, -0.85, 0.53, 70.35, 35.07)">v</text><text class="cls-11" transform="translate(160.99 56.06)">w</text><text class="cls-19" transform="translate(62.04 53.04)">j</text><text class="cls-20" transform="translate(155.63 139.2) rotate(-35.1)">o</text><text class="cls-5" transform="translate(111.22 145.77)">m</text><text class="cls-5" transform="translate(115.52 93.54)">k</text><text class="cls-5" transform="translate(149.93 117.51)">r</text><text class="cls-21" transform="translate(66.62 71.9)">v</text><text class="cls-5" transform="translate(76.2 94.16)">z</text><text class="cls-22" transform="translate(115.3 114.02) rotate(-172.38) scale(1.53 1)">l</text><text class="cls-2" transform="translate(88.71 133.57) scale(1.13 1)">o</text><text class="cls-15" transform="matrix(0.87, 0.5, -0.5, 0.87, 95.73, 102.6)">q</text><text class="cls-23" transform="translate(160.38 71.46) scale(0.78 1)">i</text><text class="cls-24" transform="translate(171.44 100.3)">y</text><text class="cls-25" transform="translate(165.5 40.74)">x</text><text class="cls-26" transform="translate(10.83 74.71)">z</text><text class="cls-27" transform="matrix(-0.56, 0.83, -0.83, -0.56, 9.56, 71.32)">o</text><text class="cls-16" transform="matrix(0.8, -0.6, 0.6, 0.8, 41.99, 64.76)">e</text><text class="cls-11" transform="translate(0 107.68)">w</text><text class="cls-28" transform="translate(106.61 107.48) rotate(29.88)">e</text><text class="cls-29" transform="translate(122.78 119.74) rotate(30.67) scale(1.03 1)">p</text><text class="cls-30" transform="translate(154.86 86.85)">z</text><text class="cls-31" transform="translate(133.55 69.9) rotate(4.61)">h</text><text class="cls-32" transform="translate(75.21 66.25) rotate(-10.82)">t</text><path d="M159.64,151.55c0-5.33-.06-10.66.07-16,0-.62,1.19-1.81,1.6-1.72a7.93,7.93,0,0,1,3.59,1.75,2.72,2.72,0,0,1-.28,2.65c-1,.88-2.38,1.26-4.13,2.1v11.22" transform="translate(-9.65 -71.97)"/><path d="M165.2,136.75c-1.43-.94-2.22-1.73-3.15-2-.4-.1-1.64,1.15-1.54,1.45.3.86,1,2,1.74,2.17C162.85,138.58,163.78,137.6,165.2,136.75Z" transform="translate(-9.65 -71.97)"/><path d="M109.9,143.8c.25,3.69.54,7.37.7,11.07,0,.43-.74,1.31-1,1.26a5.5,5.5,0,0,1-2.57-1,1.89,1.89,0,0,1,.07-1.85,12.56,12.56,0,0,1,2.76-1.65l-.53-7.76" transform="translate(-9.65 -71.97)"/><path d="M106.75,154.3a9.06,9.06,0,0,0,2.27,1.21c.28,0,1.08-.88,1-1.08-.25-.58-.77-1.31-1.3-1.42S107.69,153.65,106.75,154.3Z" transform="translate(-9.65 -71.97)"/><path d="M110.41,152c.33,3.68.7,7.36.94,11,0,.43-.71,1.32-1,1.29a5.5,5.5,0,0,1-2.59-1,1.89,1.89,0,0,1,0-1.85,12.56,12.56,0,0,1,2.72-1.71l-.7-7.75" transform="translate(-9.65 -71.97)"/><path d="M107.49,162.52a9.06,9.06,0,0,0,2.3,1.16c.28,0,1.06-.9,1-1.1-.26-.57-.8-1.29-1.33-1.39S108.42,161.85,107.49,162.52Z" transform="translate(-9.65 -71.97)"/><line class="cls-33" x1="96.36" y1="86.24" x2="103.47" y2="85.93"/><line class="cls-33" x1="94.66" y1="82.41" x2="101.89" y2="82.06"/><text class="cls-34" transform="translate(103.37 107.46) rotate(179.96)">e</text><text class="cls-34" transform="translate(104.4 115.17) rotate(179.96)">e</text><text class="cls-29" transform="translate(19.55 76.11) rotate(30.67) scale(1.03 1)">p</text><text class="cls-25" transform="translate(21.09 64.09)">x</text><text class="cls-35" transform="matrix(0.69, 0.72, -0.72, 0.69, 175.45, 67.61)">s</text><text class="cls-36" transform="translate(189.2 37.31) rotate(-144.43)">e</text><text class="cls-36" transform="translate(186.48 42.43) rotate(-144.43)">e</text><path d="M150.74,187.62c.33,3.68.7,7.36.94,11,0,.43-.71,1.32-1,1.29a5.5,5.5,0,0,1-2.59-1,1.89,1.89,0,0,1,0-1.85,12.56,12.56,0,0,1,2.72-1.71l-.7-7.75" transform="translate(-9.65 -71.97)"/><path d="M147.82,198.18a9.06,9.06,0,0,0,2.3,1.16c.28,0,1.06-.9,1-1.1-.26-.57-.8-1.29-1.33-1.39S148.75,197.51,147.82,198.18Z" transform="translate(-9.65 -71.97)"/><path d="M187.61,122.28c.25,3.69.54,7.37.7,11.07,0,.43-.74,1.31-1,1.26a5.5,5.5,0,0,1-2.57-1,1.89,1.89,0,0,1,.07-1.85,12.56,12.56,0,0,1,2.76-1.65l-.53-7.76" transform="translate(-9.65 -71.97)"/><path d="M184.46,132.78a9.06,9.06,0,0,0,2.27,1.21c.28,0,1.08-.88,1-1.08-.25-.58-.77-1.31-1.3-1.42S185.4,132.12,184.46,132.78Z" transform="translate(-9.65 -71.97)"/><line class="cls-33" x1="172.36" y1="60.88" x2="179.6" y2="60.53"/><path d="M80.34,152.76c2.43-2.79,4.83-5.6,7.33-8.32.29-.32,1.45-.4,1.62-.17a5.5,5.5,0,0,1,1.08,2.55c0,.4-.86,1.25-1.35,1.26a12.56,12.56,0,0,1-3.12-.79l-5.12,5.86" transform="translate(-9.65 -71.97)"/><path d="M90,147.56a9.06,9.06,0,0,0-.75-2.46,1.71,1.71,0,0,0-1.46.06,2.46,2.46,0,0,0-.08,1.92C87.93,147.45,88.87,147.36,90,147.56Z" transform="translate(-9.65 -71.97)"/><line class="cls-33" x1="80.53" y1="75.49" x2="75.17" y2="70.62"/><text class="cls-37" transform="translate(29.92 94.18) rotate(51.21)">Don<tspan class="cls-38" x="32.64" y="0">a</tspan><tspan x="40.29" y="0">te</tspan></text><text class="cls-39" transform="translate(29.54 93.75) rotate(51.21)">Don<tspan class="cls-38" x="32.64" y="0">a</tspan><tspan x="40.29" y="0">te</tspan></text><text class="cls-40" transform="translate(29.45 94.07) rotate(51.21)">Don<tspan class="cls-38" x="32.64" y="0">a</tspan><tspan x="40.29" y="0">te</tspan></text><text class="cls-37" transform="translate(66.3 134.77) rotate(51.21)">N<tspan class="cls-41" x="22.07" y="0">o</tspan><tspan class="cls-42" x="26.86" y="0">w</tspan></text><text class="cls-43" transform="translate(66.73 134.94) rotate(51.21)">N<tspan class="cls-41" x="22.07" y="0">o</tspan><tspan class="cls-42" x="26.86" y="0">w</tspan></text><text class="cls-40" transform="translate(66.44 135.06) rotate(51.21)">N<tspan class="cls-41" x="22.07" y="0">o</tspan><tspan class="cls-42" x="26.86" y="0">w</tspan></text><rect class="cls-44" x="65.68" y="214" width="7.26" height="4.03" transform="translate(210.13 313.82) rotate(156.24)"/><rect class="cls-44" x="92.72" y="235.82" width="7.26" height="4.03" transform="translate(172.72 407.63) rotate(-177.54)"/><rect class="cls-44" x="100.21" y="219.78" width="7.26" height="4.03" transform="translate(334.99 194.42) rotate(125.58)"/></svg>