<svg id="Layer_1" data-name="Layer 1" xmlns="http://www.w3.org/2000/svg" viewBox="0 0 151.96 199.38"><defs><style>.cls-1{fill:#fff;}.cls-2,.cls-3{fill:none;stroke:#231f20;stroke-miterlimit:10;}.cls-2{stroke-width:2px;}.cls-4{fill:#231f20;}</style></defs><title>songbirdlogo</title><path d="M119.68,116.1c0,.29.09.64,0,.85-.88,1.48-1.77,3-2.73,4.39-.24.36-.85.86-1.11.77a2.46,2.46,0,0,1-1.29-1.14c-.13-.26.35-.82.57-1.24.13-.25.3-.49.46-.74,1.41,1.65,1.51,1.64,2.39-.23-2.1-.53-.93-2.13-.88-3.4h-.32l-2,3.21c.13,0,0,0-.07,0-1.55-1.3-1.54-1.3-.23-2.89s2.79-3.42,4.22-5.09a10.52,10.52,0,0,1,1.49-1.19l-.76-1.33c-2,2.05-3.81,4-5.63,5.86-.6.63-1.08,1.46-2.22.93a25,25,0,0,1,6.7-6.46c2.63-1.73,5.27-3.44,8.05-5.25-.35-.07-.71-.26-.93-.16a35.78,35.78,0,0,0-9.09,5.7c-1.8,1.7-3.63,3.36-5.37,5.11-1.45,1.46-2.81,3-4.15,4.55a10.13,10.13,0,0,0-1,1.71c1,.64.67,1-.29,1.51-.65.32-1.39.75-1.34,1.78,0,.31-.55.64-.83,1-.57.72-1.11,1.45-1.68,2.17-.3.39-.95.53-.39,1.35.17.25-.72,1.42-1.31,2-1,.88-2.12,1.55-3.09,2.41-.46.41-.63,1.13-1,1.63-.68.84-1.46,1.6-2.18,2.4-1.28,1.41-2.64,2.77-3.78,4.29-.25.33.27,1.25.71,1.85a1.31,1.31,0,0,1-.19.41,64.85,64.85,0,0,0-4.65,4.65A59.68,59.68,0,0,0,82,153a30.24,30.24,0,0,0-1.72,2.91,7.15,7.15,0,0,0-.55,2.15,4.41,4.41,0,0,0-.34,1c-.18,1.65-.72,3.34.34,4.88a13.94,13.94,0,0,1,2.43,8.3c0,.73.77,1.57,1.37,2.19,1.17,1.21,2.47,2.3,3.81,3.53L91,175.17l0-.48c-2,.74-3.61.72-4-1.63-.07-.42.45-.94.7-1.41l.39.09c-.65-1.38-1.3-2.76-1.94-4.14a6.07,6.07,0,0,1-.52-1.28,5,5,0,0,1,0-1.2,3.32,3.32,0,0,1,1.2.12c.8.42,1.53,1,2.59,1.63l-1.79-.45-.28.2c.53,1,1,2.06,1.61,3s1.24,1.62,1.77,2.49a5.91,5.91,0,0,1,.63,1.66c.18.72.51,1.36,1.31,1,1.72-.67,3.46-.28,5.2-.35.67,0,1.59.2,1.21-1.12-.07-.25.67-.73,1.23-1.3-1.18-.59-2.35-1.28-3.6-1.76-2.21-.84-2.23-.79-2.08-3.15.14-2.09.8-2.58,2.89-1.82,2.62,1,5.19,2,7.78,3.08a17.2,17.2,0,0,1,1.78.81,3.06,3.06,0,0,1,1.12,3.69,1.09,1.09,0,0,1-2-.07,3.45,3.45,0,0,1-.41-1.75,1,1,0,0,0-.76-1.19c-1.54-.58-3.08-1.16-4.59-1.82-1.07-.47-2.05-1.12-3.12-1.57s-1.25-.14-1.37.92a1.53,1.53,0,0,0,1.4,1.91,10.86,10.86,0,0,1,5.41,3.29.92.92,0,0,1,0,1.51c-.31.33-.57.7-.85,1,.21.2.28.32.38.36,4,1.55,6.35,4.73,8,8.4a20.84,20.84,0,0,1,2.1,7.35c.16,3.81.22,7.79-2.14,11.19a1.58,1.58,0,0,0,.12,2.14c2.43,3.31,4.76,6.69,7.13,10,.17.24.39.45.83,1a7.3,7.3,0,0,0,0-1.86c-.43-1.35-.69-2.91-1.55-3.94-1.33-1.59-.28-2.63.15-4a22.2,22.2,0,0,0,.71-5.57c0,.1.07.28.11.28,1.86,0,1.82,1.69,2.27,2.8.78,1.93,1.32,3.95,2,5.92.48,1.43,1,2.87,1.53,4.28a15.7,15.7,0,0,0,1.31,2.44c.4.63.18.91-.43,1.09-1.45.44-2.08.16-2.5-1.32-.6-2.1-1.11-4.22-1.66-6.34-.11-.4-.26-.8-.39-1.21a2.92,2.92,0,0,0-1,3.53c.72,1.69,1.49,3.37,2.16,5.08a10.08,10.08,0,0,1,.33,2l-1.56-.4c.79,1.54,1.53,2.86,2.17,4.22q1.86,4,3.62,8.06a39.59,39.59,0,0,1,1.93,4.92c.7,2.46,1.24,5,1.71,7.48.37,2,.57,4,.75,6a6.64,6.64,0,0,1-.89,4.45c-1.08,1.61-4.48,1.91-5.79.51-1.74-1.86-1.95-2.8-1-4.71.61-1.3,1.22-1.68,2.57-1.2a2.61,2.61,0,0,0,3.13-.58c-.53-2.54-.94-5.28-1.71-7.91a75.55,75.55,0,0,0-3-8c-1.13-2.68-2.71-5.19-3.61-7.93a35.58,35.58,0,0,0-3.89-7.9c-2-3.2-4.32-6.21-6.49-9.32-.54-.77-1-.82-1.75-.16a15.33,15.33,0,0,1-4.23,2.87,19.46,19.46,0,0,1-7.28,1.34,18.91,18.91,0,0,1-13.48-6.23,17.7,17.7,0,0,1-4.89-10.89,42.83,42.83,0,0,1-.27-7.37,57.08,57.08,0,0,1,1.58-8.88c.47-1.89.37-3.25-1.13-4.72-1.9-1.87-3.4-4.13-5.12-6.18-1.38-1.65-2.87-3.2-4.22-4.87s-2.53-3.37-3.79-5.06c-.11-.15-.19-.39-.34-.46-1.81-.82-2.25-2.52-2.68-4.28a3,3,0,0,1,3,.33,36.28,36.28,0,0,1,9.62,6.8,15,15,0,0,0,2.8,1.79c-.12-1.29-.22-2.45-.34-3.6a5.42,5.42,0,0,0-.19-1c-.7-2.33-1.86-4.63-2-7-.08-1.67-1.26-2.92-1-4.53.92-.14,3.2,1.56,3.78,2.81l2.1,4.52c1-1.76,1.95-3.4,3-5,1.31-2,2.7-3.91,4.11-5.82q2.81-3.83,5.7-7.59c.55-.72,1.25-1.31,1.82-2,3.21-4,6.35-8.14,9.63-12.12,2.08-2.52,4.31-4.93,6.6-7.28,1.67-1.72,3.5-3.29,5.31-4.86A44.89,44.89,0,0,1,125.52,101a82.27,82.27,0,0,0,12-7.23c2.2-1.57,4.19-3.43,6.43-4.92a30.71,30.71,0,0,0,7.89-7.76c.12-.16.35-.23.78-.5-.24,1.19-.17,2.33-.69,3a21.44,21.44,0,0,1-3.52,3.65c-2.94,2.48-5.92,4.91-9,7.23-1.94,1.47-4.06,2.69-6.07,4.06a1.86,1.86,0,0,0-.49.91c-.17.47-.27,1-.44,1.57a36.09,36.09,0,0,0,3.83-1.8c1.46-.89,2.71-2.17,4.2-3,2.36-1.29,3.57-3.66,5.45-5.37,2.64-2.4,5.36-4.71,8-7.06a2.2,2.2,0,0,1,1-.57,5.17,5.17,0,0,1-.73,1.35c-2,1.95-4.09,3.82-6.1,5.76-1.84,1.78-3.59,3.64-5.43,5.42a26.6,26.6,0,0,1-2.27,1.77l1,1.49a26.35,26.35,0,0,0,5-4.43,65.92,65.92,0,0,1,5.15-5.24c1.18-1.14,2.42-2.22,3.65-3.31A7.76,7.76,0,0,1,157,84.83c-1.34,2.91-4.3,4.45-5.94,7A8,8,0,0,0,153.5,93a6.8,6.8,0,0,0,2.51-.62c.53-.16,1-.39,1.55-.58l.14.31c-.61.33-1.22.64-1.81,1-.89.52-1.78,1-2.64,1.6s-.6,1-.27,1.79a4.78,4.78,0,0,1,.46,2.45c-.13,1-.72,1.05-1.5.44a5.76,5.76,0,0,1-.58-.56c-.16-.16-.29-.34-.43-.49L152,96.6l-.59-.31a6.41,6.41,0,0,1-.8,1.76c-.9,1-.1,1.81.08,2.71a1,1,0,0,1-.37.89,1.6,1.6,0,0,1-1.28.06,5.87,5.87,0,0,1-1.13-1.41,13.54,13.54,0,0,1-1.87,1.15c-1.86.78-3.74,1.5-5.63,2.19-3.11,1.15-6.24,2.26-9.36,3.41a4.61,4.61,0,0,0-1,.59c-.61.42-1,1.45-2,.5-.18-.17-.84,0-1.19.23-1.26.71-2.46,1.55-3.74,2.24-1,.53-.79,1.27-.38,1.93.52.85,1,.05,1.53-.17a2.55,2.55,0,0,0,.38-.26h0a7.28,7.28,0,0,1-.46.71,5.82,5.82,0,0,1-1.26,1.23c-.79.54-1.58,1.09-2.38,1.62a9.12,9.12,0,0,1-.88.46,19.53,19.53,0,0,1,1.83-1.86c1-.78.54-1.41-.46-2.51l-1.56,2.46c-.23-1.57,2.11-1.76,1.35-3.8-1.28,1.13-2.43,2-3.44,3.1-.22.23.05.94.11,1.58l1.39-.9c-.45.86-1.37,1.42-.5,2.26C118.94,117,119.32,116.51,119.68,116.1Zm-12.21,85.06a4,4,0,0,0,.45-.74,40.7,40.7,0,0,0,1.62-6,24.15,24.15,0,0,0,0-6.83,14.29,14.29,0,0,0-3.36-6.81c-1.3-1.54-2.57-3.19-4.86-3.28-1.09,0-2.18,0-3.26-.07a13.43,13.43,0,0,0-7.76,2.35c-.78.5-1.06,1.05-.43,1.85,1.13,1.44,2.23,2.92,3.44,4.3.23.27.88.27,1.32.23.63-.07,1.31-.56,1.85-.41,2.41.68,4.89,1.42,5.95,4a5.1,5.1,0,0,1,.5,3.19c-.62,1.76-.42,3,1,4.17a4.87,4.87,0,0,1,.51.61ZM81.58,177c-.1,1.76-.17,3.17-.27,4.57a12.5,12.5,0,0,1-.47,3.85c-.32.75.09,1.28-.11,1.91a10.38,10.38,0,0,0-.43,2.48c0,.83.11,1.67.11,2.51A17.2,17.2,0,0,0,86,205c1.92,1.87,4.51,1.86,6.83,2.61a4.2,4.2,0,0,0,2.15.18,69.67,69.67,0,0,0,7.12-2,17,17,0,0,0,3.47-2.07c.64-.42.82-.94.16-1.6-1.08-1.09-2-2.29-3.13-3.37-1.35-1.34-1.49-1.36-2.83.07a8.22,8.22,0,0,1-6,3,20.07,20.07,0,0,1-2.47-.33,7.29,7.29,0,0,1-4.55-2.47,15.28,15.28,0,0,1-4-7.9c-.32-1.93-1-3.92-.23-5.87.51-1.24,1.32-2.35,2-3.54.21-.38.55-1,.4-1.22A10.07,10.07,0,0,0,81.58,177ZM92.93,199.1c1.75-.35,4.19-.74,5.88-2.78a1.39,1.39,0,0,0,0-1.32c-.55-.71-1.34-1.23-1.93-1.91A2.76,2.76,0,0,0,94.53,192c-1.2,0-1.85-.75-2-2,0-.48,0-1.08-.24-1.41-1.41-1.81-2.89-3.56-4.38-5.29a.94.94,0,0,0-.83-.05c-.89,1.67-2.26,3.25-1.7,5.32a39.66,39.66,0,0,0,2.31,7.18C88.55,197.39,89.76,199.27,92.93,199.1ZM78.58,169.22l.5-.28a5.45,5.45,0,0,0-.41-1.68c-.49-.79-1.38-1.37-1.74-2.19a10.17,10.17,0,0,0-3.36-3.84c-.35-.27-.7-.54-1-.85-1-.92-1.91-1.86-2.86-2.8l-.26.2a7.22,7.22,0,0,0,.5.78c.58.7,1.23,1.36,1.78,2.08,1.6,2.08,3.14,4.21,4.75,6.28C77.1,167.75,77.87,168.46,78.58,169.22Zm70.16-71.61a6.36,6.36,0,0,0-.86-1.39,1.06,1.06,0,0,0-1,.07c-1.62,1.38-3.21,2.8-4.73,4.28-.24.24-.16.9-.08,1.33,0,.16.58.39.78.3a12.67,12.67,0,0,0,5.46-3.83A7.07,7.07,0,0,0,148.74,97.62Zm-16.34,5.93c2.3-1,4.6-2,6.84-3.15,1.26-.63,1.26-1,.53-2.23-2.41,1.22-4.83,2.43-7.23,3.67C131.86,102.19,131.77,102.74,132.4,103.55Zm7.76-.27c-.19-1-.52-1.47-1.58-1-1.66.68-3.43,1.11-5,1.87-.76.36-1.28,1.24-1.9,1.89l.27.32Zm-17.87,4.57c1.51-.71,2.93-1.43,4.4-2,.64-.26.79-.65.46-1.11a1.22,1.22,0,0,0-1.08-.42c-1.27.6-2.48,1.33-3.71,2C121.57,106.74,121.6,107.24,122.3,107.84Zm-.67,2.35.28.32a4.94,4.94,0,0,0,.94-.29c1.47-.8,2.95-1.61,4.39-2.47.26-.16.36-.59.54-.89-.37,0-.83-.21-1.11-.06-1.47.8-2.91,1.67-4.34,2.56A3.5,3.5,0,0,0,121.62,110.19Zm-21,83c.8-1.77.38-3.5-.94-4.11C98.2,191.41,98.31,191.91,100.58,193.22ZM131,102.55c-.94.32-1.79.56-2.59.92-.26.11-.38.52-.57.79.3.2.63.59.9.55a14.46,14.46,0,0,0,1.71-.6C131.38,103.93,131.31,103.35,131,102.55Zm-2,.15c.57-.47,1.59-.4,1.06-1.37-.14-.25-.77-.23-1.34-.38Zm1.7,2.84-.24-.34a17.93,17.93,0,0,0-1.75,1.05c-.08.06.15.55.31,1.1ZM89.32,142.26c-1.33.25-1.58.65-1.19,1.93ZM118,209l.71-2.09C117.74,207.24,117.07,207.67,118,209Z" transform="translate(-32.59 -80.6)"/><path d="M49,163.18c4.34,1.59,6.74,3.19,11.79,3-.39-.42-.53-.67-.73-.78-1.8-.94-3.57-1.93-5.42-2.75-1.56-.69-3.21-1.18-4.83-1.72a29.32,29.32,0,0,1-4.31-1.41c-.74-.38-1.14-.86-1.83,0,.24.38,1.64.5.35,1.22a1.85,1.85,0,0,0,.3.74,13.55,13.55,0,0,0,1,1.06c-1.06.88-.74,1.53,0,2.51a6.31,6.31,0,0,0,3.32,2.37c1.28.45,2.28,1.67,3.46,2.46,1.58,1.06,2.17,2.76,2.76,4.37a13.6,13.6,0,0,1,.8,6.68,1.35,1.35,0,0,0,0,.8c.22.39.56,1,.85,1,.79,0,1.56-.28,1.32-1.39a30.11,30.11,0,0,0-.63-3,4.15,4.15,0,0,1,.51-3.86c.27.21.55.4.8.63.61.53,1.24,1.06,1.81,1.63a3.8,3.8,0,0,1,1,1.3c.79,2.4,1.5,4.83,2.19,7.26a1.54,1.54,0,0,1-.09,1.15c-.11.16-.72.08-1.05,0-1.37-.49-1.71-1.44-1.1-2.8a1.17,1.17,0,0,0,0-.74,22.08,22.08,0,0,0-.87-2.62,5,5,0,0,0-.95-1.11l-.44.19c.11,1,.25,2.06.31,3.1a10.19,10.19,0,0,1-.08,2.35,1.09,1.09,0,0,1-.92.55,5.11,5.11,0,0,1-2.69-2c-2.14-2.42-1.62-5.77-3.41-8.31s-3.47-4.63-6.61-5.3a6.68,6.68,0,0,1-2.16-1.46,6.3,6.3,0,0,0-5.08-1.13,4.74,4.74,0,0,1-3-.42,16.57,16.57,0,0,0-2.79-.75,4.65,4.65,0,0,1,.44-1.07c1.43-2,2.81-4,4.37-5.89a17.14,17.14,0,0,0,2.85-6,24.49,24.49,0,0,1,3.93-7.65,11.8,11.8,0,0,1,1.75-1.5v1.56c2.14-3.42,5.45-4.3,8.68-5.16a16.52,16.52,0,0,1,9.38-.1l-.07.57-1.12-.49c-.51-.21-1-.46-1.37.25a.94.94,0,0,1-.71.32c-.82,0-1.65-.08-2.47,0a11.86,11.86,0,0,0-1.72.57c-1.62.46-3.39.61-4.82,1.4a24.88,24.88,0,0,0-4,3.4,12.82,12.82,0,0,0-1.79,1.66,2.24,2.24,0,0,0-.16,1.68L48,147.12l.3.11a1.67,1.67,0,0,0,0,2.32c.28.42-3.84,3.55-3.93,4.29,1.76.23,4.25-.86,4.46-.11,1.92,1,1.82,1.82-.59,3.9l2.12,1.09c5.82,3,11.64,6,17.44,9.07.34.18.51.67.77,1a4.17,4.17,0,0,1-1.09.45,18.33,18.33,0,0,1-4.52.32,28.59,28.59,0,0,1-13.11-5.28c-.58-.43-1.19-.83-1.74-1.29C47.84,162.8,49.17,163.43,49,163.18Z" transform="translate(-32.59 -80.6)"/><path d="M132.93,160.4c-.4,0-.8-.06-1.2,0s-.79.09-1.18.14c.19.42.36.85.57,1.25,0,.09.25.11.3.13-.27.34-.76.7-.7.95a1.49,1.49,0,0,0,.87.86c2.58.95,5.07,2.31,7.92,2.18a38.44,38.44,0,0,0,4.09-.5,16.21,16.21,0,0,1,2.65-.5c.6,0,1.18.53,2,.94-1.64,1-3,1.88-4.73,1.87a22.67,22.67,0,0,1-8.25-1.21c-1-.4-2.13-.65-3.2-.95-.71-.2-.85,0-1,1.15-.2-.18-.45-.3-.47-.45-.22-1.3-1.23-1.55-2.23-1.5-3.41.18-6.81.45-10.21.71a4.32,4.32,0,0,1-1.63,0c.65-.51,1.54-.89,1.88-1.56s0-1.45-.15-2.17c-.1-.52.12-.62.48-.92s.54-1.08.8-1.65l-.27-.3-2.77,1.3-.25-.39,1.43-1.07a5.78,5.78,0,0,0,.93-.67,5.44,5.44,0,0,0,.59-1c-.32-.14-.63-.3-.95-.43a2,2,0,0,0-.41-.08l-.06-.37,8.38-1.88-.18,2.54c-.33.24-1.71-.23-1.41,1.07s1.66.63,2.49,1c-.39.95-2.19-.3-2.16,1.44,1.27.29,2.54.61,3.82.83.34.06.73-.2,1.1-.31a10.39,10.39,0,0,0-.48-1.18.92.92,0,0,0-.37-.3l.81-1.62-1.91-.76,0-.16c1.36.28,2.71.64,4.08.8a32,32,0,0,0,4.32.19c.27,0,.53-.57.82-.85s.59-.68.75-.62c2.06.68,3.94,0,5.79-.74a20.23,20.23,0,0,0,1.81-1,3.21,3.21,0,0,0-3.62-.32l-.46-.42c.84-1.19,2.68-1.35,3.14-2.93l-.21-.32c-1.17.65-2.41,1.2-3.51,2a14.53,14.53,0,0,1-7.83,2.6c-.1,0-.19-.05-.31-.25.6-.12,1.2-.28,1.8-.35,2.16-.24,3.89-1.49,5.76-2.41,1.44-.71,2.81-1.58,4.23-2.35.43-.23.72-.8,1.41,0,.45.54,1.66.06,2.31-.61s1.18-1.32,2-2.26c0,.5,0,.75-.06.92-1.06,1.91-2.17,3.8-3.21,5.73a1.34,1.34,0,0,0,0,1c.59,1.56,1.23,3.1,2,5-1-.25-1.76-.44-2.49-.6a6,6,0,0,0-.88-.06l.09-1.8.89-.07-.82-1.85c-.17,0-.31,0-.39,0a21.6,21.6,0,0,0-3.43,2.41c-.4.4-.13,1.47-.16,2.24a5,5,0,0,0,1.41,0c.84-.25,1.63-.64,2.44-1a12.47,12.47,0,0,1-2.17,1.9,2,2,0,0,0-1,2.41c4.59-.37,8.19-3.05,12-5.07l.2.38a41.28,41.28,0,0,1-4,2.52,50.69,50.69,0,0,1-5.83,2.39c-3.78,1.3-7.55,1.42-11.21-.66l2.36.35a1.39,1.39,0,0,0-1.05-1.77,19.8,19.8,0,0,1-2-1l1.33.3a21,21,0,0,0,2.3.53c.21,0,.7-.44.68-.61-.09-.56-.35-1.54-.57-1.55-1.42-.05-2.85.11-4.58.22Zm-3.07,2.67.31-.21c-.28-.31-.53-.85-.86-.89a21.41,21.41,0,0,0-3.66-.23,5.69,5.69,0,0,0-1.68.61l.1.21Zm8.32-4.47v2.26l2-.07s.1,0,.11,0c.21-.31.54-.62.56-.95s-.39-.56-.67-.68A16.72,16.72,0,0,0,138.19,158.6ZM123,157a21.66,21.66,0,0,0-2.42,1c-.23.12-.24.65-.35,1a3.36,3.36,0,0,0,.83.08,9.16,9.16,0,0,0,2-.43,1.31,1.31,0,0,0,.56-.92C123.68,157.48,123.28,157.23,123,157Zm16.15,7c.57-.38,1.33-.61,1.5-1.07s-.26-1-1-1-1.49.39-1.57,1.27C138.05,163.39,138.68,163.64,139.17,164ZM122,157l1.53-1c-.19-.19-.37-.52-.57-.53C122.23,155.41,121.83,155.78,122,157Z" transform="translate(-32.59 -80.6)"/><path d="M118.09,142.21c-1.18.78-2.33,1.62-3.56,2.32a9,9,0,0,1-2,.59l1.45-1.07-1.56-1.9c.28-.23.57-.36.67-.58a5.63,5.63,0,0,0,.28-1.12,3.57,3.57,0,0,0-1.11,0,3.67,3.67,0,0,0-1.31.68c-.31.26-.72.75-.66,1s.58.68,1,1.11c-.24,1.17.11,1.74,1.3,1.84-.79,1.35-2.17,1.74-3.74,2.34,1.18-1,1.08-1.9-.1-2.81a.64.64,0,0,1,.1-.19c.49-.46,1.47-.76.83-1.69s-1.24-.1-1.83.22c-1.52.82-3.05,1.6-4.56,2.44-1.1.61-1.15,1.13-.26,2a1.34,1.34,0,0,1,.36.52c.3,1.1.29,1.11,1.24,1.55l-.53,1.59c-.38-.7-.66-1.16-.89-1.65a26.68,26.68,0,0,0-1.26-2.61c-.13-.22-.83-.25-1.18-.13a16.25,16.25,0,0,0-2,1l-.16-.26c.52-.31,1-.65,1.55-.91,1.17-.56,1.29-.88.58-2.28-1.57.75-3.15,1.5-4.71,2.27-.65.32-1.29.69-1.92,1.05-.82.46-.57,1-.19,1.66s.84.39,1.33.05a4.91,4.91,0,0,1,1.76-.75,17.45,17.45,0,0,0-1.49,1c-.35.29-.85.68-.86,1s.59.61.89.88v1.72L94,152.16c.31-1.08,0-1.42-1.62-1.12,1.41-.69,1-1.49.46-2.5A13.92,13.92,0,0,0,90.32,150c-1.47,1.27-2.79,2.72-4.21,4.06-.83.77-1.78,1.42-2.59,2.2a15.4,15.4,0,0,0-1.41,1.83l-.29-.13c.08-.33.05-.76.25-1a52.42,52.42,0,0,1,4.34-4.65c1.69-1.49,3.64-2.68,5.43-4.06.31-.24.38-.81.67-1.48l-1.6.18-.13-.31,5.3-2.4c-.31,1-1.95.72-1.18,2.15,1-.51,1.88-1,2.82-1.5,3-1.5,6-3,9-4.48,1.29-.65,1.37-.94.52-1.76l-7.45,4.13-.23-.36a156,156,0,0,0,22-14.84l.34.4c-.38.42-.77.84-1.14,1.26s-.54.64-.82,1l1.29.73-1.06,2.63.19.16c1-.74,2-1.5,3-2.22a4.79,4.79,0,0,1,.9-.39c-.13.34-.16.79-.4,1-.89.77-1.85,1.46-2.79,2.17-.31.23-.73.37-.93.67s-.7,1.07-.55,1.39c.33.71.87.08,1.31-.1-.79,1.57-.73,1.78.83,2.91.69-.55,1.44-1.12,2.16-1.73,1-.83,1.91-1.69,2.91-2.59l-.35-2.27-4.61,3.35c.63-.7,1.23-1.42,1.88-2.09s1.6-1.42,2.31-2.21c1.34-1.49,1.25-1.88-.49-2.8,2-3.21,5.36-4.51,8.67-5.9L132,125.33c1.13.76,1.83.7,3.13-.26.44-.32.83-.87,1.47-.33l0,0c-.94.64-1.87,1.3-2.81,1.93-1.26.83-1.41,1.67-.5,2.92.13.18.47.36.44.49a10.9,10.9,0,0,1-.47,1.43c-.36-.18-.94-.3-1-.56a17.31,17.31,0,0,1-.41-2.56,2.33,2.33,0,0,0-.65.28c-.46.4-.85.87-1.31,1.27-1.39,1.19-1.48,2.06-.29,3.51.1.13.35.13.76.26a86.32,86.32,0,0,1-12.2,8.53l2.24-2.35-3.16-1c0-.13,0-.67-.13-.73a1.68,1.68,0,0,0-1.14,0,4.35,4.35,0,0,0-1.34.86,1.17,1.17,0,0,0-.34.94c.07.28.48.48.53.52l.93,2.56a14.52,14.52,0,0,1,1.55-.82A2.64,2.64,0,0,1,118.09,142.21Zm-2.59-6.86-.1-.22a5.94,5.94,0,0,0,1.18-1c.19-.27.11-.74.15-1.12a3.89,3.89,0,0,0-.9,0,2.22,2.22,0,0,0-.7.39c-1.28.89-2.55,1.79-3.84,2.67-1.08.73-2.18,1.43-3.26,2.14l.22.39c2,0,3.34-1.62,5.12-2.05l.18,2.05c1.49-1.06,2.72-1.9,3.9-2.81.16-.12.16-.57.08-.81s-.48-.16-.7-.11A12,12,0,0,0,115.49,135.35ZM103.06,143c.57,1.45.79,1.52,1.85.87s2.18-1.24,3.23-1.93c.26-.17.33-.65.48-1-.33-.13-.76-.45-1-.35C106.08,141.36,104.56,142.2,103.06,143Zm9.25-4.86c-.94.45-1.83.84-2.68,1.32a1.06,1.06,0,0,0-.34.82c0,.19.28.47.49.54.51.17,2.74-1.51,2.77-2.06C112.56,138.6,112.43,138.43,112.31,138.14Zm15.83-9.76.35.24a11,11,0,0,0,2.22-1c.28-.21.18-.94.25-1.43-.38,0-.94-.17-1.12,0A24,24,0,0,0,128.14,128.38Zm-9.79,7.82a4.25,4.25,0,0,0-.7,1c0,.13.41.56.55.52a1,1,0,0,0,.7-.59C118.95,137,118.62,136.65,118.35,136.2Z" transform="translate(-32.59 -80.6)"/><path d="M70.4,224c-1.89-1.8-.77-3.66.34-5.63-2.71.3-3.66,2-4,4.21-1.62-.93-.81-2.82,2.1-5.12-1.76-.73-3.48.22-4.62,2.78a4.37,4.37,0,0,1-.27-1,4.19,4.19,0,0,1,2.79-3.36,4.41,4.41,0,0,1,3.45,0,3,3,0,0,0,3.13-.48c.76-.58,1.62-1,2.36-1.62a14.93,14.93,0,0,0,1.47-1.59c-.58-.36-1.45,2.6-1.87,2.24-.05,0,.35-.67.4-.65.49.18,2.13-2.83,1.77-2.23.94-.61,1-1.07.17-2.24-.34-.47-.61-1-.92-1.5,1.54-.69,1.58-.76.85-2.17a41.1,41.1,0,0,1-4.36-13.87,4.24,4.24,0,0,1,0-.49c1.05-.47,1.49.21,1.88.94a31.54,31.54,0,0,1,1.83,3.92l-1.56-.76a3.52,3.52,0,0,0,0,1.38c1.18,2.83,2.39,5.65,3.66,8.44.55,1.21,1.4,2.3,1.89,3.54a4.7,4.7,0,0,1-.84,4.77,50.92,50.92,0,0,1-4.29,4.74c-.44.43-1.3.39-1.91.69a10.94,10.94,0,0,0-2.33,1.44,1.86,1.86,0,0,0-.58,2.47c.16.31,0,.77,0,1.17Z" transform="translate(-32.59 -80.6)"/><path d="M81,217c.08.36-.43.6-.5.39a.21.21,0,0,1,.08-.28c1.55-.82,3.29-3.7,4.29-5.27.33-.51.29.59.9,1.07.31.24.29,1.18.11,1.7a2.72,2.72,0,0,1-.19.41l.77.61,0,0c1-1,2-.36.86.66s-1.9,1.88-2.89,2.79-1.94,1.7-2.89,2.42a4.28,4.28,0,0,0-.75,1c0,.05,0,.2,0,.21-2.21.83-.24,2.09-.31,3.13a5.65,5.65,0,0,0,0,.85.24.24,0,0,1-.31.25,1.56,1.56,0,0,1-.85-.39c-.71-1-1.33-2-2-3.08a.25.25,0,0,0-.44,0c-.44,1.1.57,2.14.55,3.31a.24.24,0,0,1-.46.11l-1.63-3.09a.24.24,0,0,0-.44,0l-1.22,2.7a.24.24,0,0,1-.44,0,4.84,4.84,0,0,1,0-3.06c.72-2.4,2.74-3.49,4.57-4.79.53-.38,1.11-.67,1.46-.87" transform="translate(-32.59 -80.6)"/><path d="M117.31,187.77a8.16,8.16,0,0,1-1.06-4.3,22.19,22.19,0,0,0-.52-3.29c-.21-1.47.46-2.27,2-2.23,1.21,0,1.78-.55,2.08-1.77-1.62-.77-3-.1-4.37.59a18.26,18.26,0,0,0-1.89,1.41,3,3,0,0,1-.85.27c0-.32-.11-.76,0-1a5.76,5.76,0,0,1,5.85-2.43,11.68,11.68,0,0,0,2.22.27,2.1,2.1,0,0,1,2.11,1.27c.16.32.72.7,1,.64a36.58,36.58,0,0,1,8.8-.54c1.88.05,3.37-.85,5-1.55a12.54,12.54,0,0,1,2.41-.54l.21.53a17.85,17.85,0,0,1-3.62,1.82,47.85,47.85,0,0,1-6.46,1c-1.72.19-3.36.29-4.82,1.5s-3,1.91-4.42,2.93a5.43,5.43,0,0,0-2.24,4.95,3.44,3.44,0,0,1,0,.56,2.62,2.62,0,0,1-.23.48l-1.23-.52S117.27,187.81,117.31,187.77Z" transform="translate(-32.59 -80.6)"/><path d="M128.45,280c-1.63-1.06-2.73-2-3.08-3.71s-.15-3,1.51-4.06c1.1.79,1.17-.11,1.3-1,.52-3.49,1.15-7,1.55-10.47a44,44,0,0,0-.06-5.15,4.7,4.7,0,0,1,.26-1.09c.54.22,1.54-.18,1.53.81a74.3,74.3,0,0,1-.26,8.9c-.49,3.93-1.4,7.81-2.11,11.72-.09.52,0,1.07-.11,1.6C128.85,278.28,128.66,279,128.45,280Z" transform="translate(-32.59 -80.6)"/><path d="M118.89,238.63c-.32-1.77-.66-3.5-.92-5.24-.16-1.07-.14-2.17-.33-3.22a16.2,16.2,0,0,0-.76-1.92c-.2-.61-.28-1.27-.46-1.89s-.42-1.29-.59-1.8l.45-1.85c2.62,1.45,3,4.54,4.64,6.78-1.39,0-1.55-1.33-2.53-1.88a47.06,47.06,0,0,1,2.7,15.95c-.52,0-1,0-1.5,0s-.9.12-1.26.17a11.79,11.79,0,0,0-.58-1.86C116.7,239.78,116.7,239.7,118.89,238.63Z" transform="translate(-32.59 -80.6)"/><path d="M106,217.47c.78,1.42,1.6,2.82,2.3,4.28a6.06,6.06,0,0,1,.35,1.64c-2.14,1.55-3.12.3-4-1.18,1.34-1.16,1.48-1.24.53-2.92s-2.16-3-3.23-4.55c-.38-.54-.67-1.14-1-1.71a1.54,1.54,0,0,1,2.13-.13,6.72,6.72,0,0,0,2.38,1.08A3.83,3.83,0,0,1,108,215.8c1,1.56,2.08,3.11,3.16,4.64.37.52.89.93,1.24,1.46s1,1.38.82,1.66a1.62,1.62,0,0,1-2,.4c-1.06-.4-1.37-1.17-.7-2.14-.86-1.26-1.68-2.59-2.65-3.81-.35-.44-1.07-.59-1.62-.87Zm.47-1.06.3-.45-2-1.12-.25.46Z" transform="translate(-32.59 -80.6)"/><path d="M67.68,176.69l-.8,1.19-1.73-1-.29.18,5.72,16.67c-1,.82-2.83.37-3.86-.85a2,2,0,0,1,.28-3,1.13,1.13,0,0,0,.19-1c-1.22-4-2.47-8-3.72-12,0,0,0-.08,0-.11a3.07,3.07,0,0,1-.28-3.69Z" transform="translate(-32.59 -80.6)"/><path d="M72.49,173.88c-.38,3.2.42,6.41-.81,9.5-1-.1-1.91-.17-2.41-1.16s-.15-1.52.84-1.46,1.3-.34,1.26-1.2c-.11-2.42-.24-4.83-.37-7.25,0-.34-.17-.75,0-1a8.09,8.09,0,0,1,1-1.3,4.65,4.65,0,0,1,1,.83c.94,1.43,1.83,2.88,2.71,4.34a2.58,2.58,0,0,1,.31,1.07c.26,2.93.46,5.86.76,8.78.09.84.15,1.81-.72,1.88A2.83,2.83,0,0,1,74,185.66c-.49-.65-.05-1.33.61-1.84a1.64,1.64,0,0,0,.66-1.11c-.06-1.69-.19-3.37-.39-5.05S73.41,175.08,72.49,173.88Z" transform="translate(-32.59 -80.6)"/><path d="M132.09,233.93c-.37-.18-.83-.26-1-.53a31.68,31.68,0,0,1-2.49-3.94c-.94-1.92-1.71-3.92-2.46-5.92-.47-1.25-.78-2.56-1.17-3.88l.75-.44,5.78,7.64a10.42,10.42,0,0,1-1.6-.52,11.29,11.29,0,0,1-1.36-1l-.33.25c.73,1.36,1.4,2.74,2.19,4.06.92,1.54,1.93,3,2.91,4.52a3.21,3.21,0,0,1-.46,3.8,1,1,0,0,1-1,.06A2.63,2.63,0,0,1,132.09,233.93Z" transform="translate(-32.59 -80.6)"/><path d="M117.77,183.86s-.06,0-.06.06c-1.12,1.58.19,2.85.66,4.13,1,2.69,2.27,5.28,3.49,8-.11,0-.49.25-.76.16a6.05,6.05,0,0,1-3.37-2.43,1.25,1.25,0,0,1,.27-1.19c.77-.55.48-1.14.21-1.72-1.16-2.44-2.3-4.9-3.56-7.29-.75-1.44-1.7-2.76-2.52-4.16a5.63,5.63,0,0,1-.35-1.32l1.13-.13c.94,1.25,1.71,2.34,2.55,3.36S117,183,117.77,183.86Z" transform="translate(-32.59 -80.6)"/><path d="M90.06,157.18c-.82.74-.39,1.38.06,2.12a2.12,2.12,0,0,1,.29,1.56c-.09.27-1,.51-1.35.39-.78-.25-.39-.91-.23-1.44.1-.34.15-.69.22-1l-.72-.13a2.34,2.34,0,0,0,.06-.77,2.79,2.79,0,0,0-.42-.74,2.45,2.45,0,0,0-.62.42c-.64.81-1.24,1.66-1.86,2.49l-.44.57-.38-.24c.58-.87,1.18-1.72,1.74-2.6a17.76,17.76,0,0,0,1.13-2c.06-.12-.28-.43-.43-.65l-.44-.12c1.09-.83,2.16-1.7,3.29-2.47.2-.13.72.11,1,.28a10.92,10.92,0,0,1,1.16.78v1.91l3.86-1.9.18.35c-.64.37-1.25.79-1.91,1.09-1.62.73-1.68,1.08-.7,2.49.3.43.16,1.15.23,1.74l-2.42.15a3.44,3.44,0,0,1,0-1.2,5.85,5.85,0,0,1,.86-1.2c-.94-.61-1.58-.13-2.22.23a11.16,11.16,0,0,0,1.15-1c.15-.18.13-.51.19-.78-.26,0-.59-.15-.78,0a5.5,5.5,0,0,0-1.13.94,2.08,2.08,0,0,0-.29.67Z" transform="translate(-32.59 -80.6)"/><path d="M123.15,257.22c.81.49,2.9,6.39,2.69,8.12l-1.2-2.13-.38.1-.93,10.83a2.21,2.21,0,0,1-2.77-1.6,13.5,13.5,0,0,1-.45-2.82c0-.31.27-.64.42-1a4,4,0,0,1,1,.53,8.37,8.37,0,0,1,.85,1.15l.32-.06Z" transform="translate(-32.59 -80.6)"/><path d="M120.57,168.27l3.35.69a2.49,2.49,0,0,0,.89.12c1.13-.21,1.42.73,1.77,1.38a2.44,2.44,0,0,1-1,2.4,1.78,1.78,0,0,1-2-1.52c-.09-1.84-1.29-1.84-2.45-1.67-2,.3-4,.78-5.94,1.28-.44.11-.74.65-1.17.9a12.63,12.63,0,0,1-2,1,.87.87,0,0,1-.81-.29c-.14-.32-.18-1,0-1.08a18.74,18.74,0,0,1,4.08-2.37A31.26,31.26,0,0,1,120.57,168.27Z" transform="translate(-32.59 -80.6)"/><path d="M62.67,198.18c-2.37-3.59-4.24-7.19-4.79-11.36a1.79,1.79,0,0,1,2,1.45,34.89,34.89,0,0,0,1.33,4.22c.73,1.71,1.68,3.32,2.52,5a17.8,17.8,0,0,1,1,2.18c.1.29-.11.69-.17,1a7.5,7.5,0,0,1-2.15-.35,5.45,5.45,0,0,1-1.49-1.46,1.57,1.57,0,0,1,.6-.71C61.76,198,62.11,198.13,62.67,198.18Z" transform="translate(-32.59 -80.6)"/><path d="M98.13,215.65l-2.4-.26L97.32,218a6,6,0,0,1,.72,1.3,1.4,1.4,0,0,1-.13,1.14,1.25,1.25,0,0,1-1.12.33c-.72-.31-1.4-.55-1.42-1.74,0-1-.8-2-1.37-2.95-.92-1.52-2-3-2.89-4.48-.18-.29-.07-.75-.1-1.13a5.24,5.24,0,0,1,.89.39q2.6,1.74,5.17,3.51c.42.29.82.61,1.22.91Z" transform="translate(-32.59 -80.6)"/><path d="M72.95,203.81c-1-1.77-2-3.54-3-5.33a9.72,9.72,0,0,1-.77-1.79,3,3,0,0,1,.05-1c.37.13.9.15,1.09.41A20.58,20.58,0,0,1,72.11,199q1.4,2.81,2.61,5.72a2.86,2.86,0,0,1,.09,1.75,1.36,1.36,0,0,1-1.2.35,32.86,32.86,0,0,1-2.93-2.95c-.14-.16,0-.61.09-.93a3.59,3.59,0,0,1,.88.27,10.18,10.18,0,0,1,1.05.83Z" transform="translate(-32.59 -80.6)"/><path d="M143.1,140.16c2.22-.28,3.34-1.93,4.9-2.84l-.15-.28-4.22,2.16-.15-.26,5.12-3.38c-.08,1.31-.13,2.24-.2,3.17s-.16,2.1-.27,3.15a3,3,0,0,1-.25,1.22,1.58,1.58,0,0,1-1,.63c-.17,0-.57-.37-.63-.62s0-1,.17-1.07c1.31-.75,1-2,1.22-3.37-1.47,1-2.8,1.81-4,2.8-.37.31-.3,1.14-.41,1.74a13.17,13.17,0,0,1-.33,2,1.62,1.62,0,0,1-.9.76.81.81,0,0,1-.72-.35c-.11-.32-.14-.93,0-1C143.12,143.43,142.69,141.55,143.1,140.16Z" transform="translate(-32.59 -80.6)"/><path d="M114,240.12a10.87,10.87,0,0,1-1.43-1.69c-.36-.66-.51-1.42.57-1.73a.82.82,0,0,0,.45-.64c-.12-1.83-.25-3.66-.46-5.49-.11-.94-.37-1.86-.59-2.92.65-.59,1.15-.19,1.54.54.81,1.5,1.62,3,2.42,4.5l-.25.22-1.49-1.55c0,2.12-.09,4.34,0,6.56A2.12,2.12,0,0,1,114,240.12Z" transform="translate(-32.59 -80.6)"/><path d="M182.21,95a9.55,9.55,0,0,0-1,.65c-2,1.72-2,1.72-.6,4.19.17.3.26,1,.11,1.07a1.9,1.9,0,0,1-1.22.23c-.16,0-.46-.56-.39-.68.71-1.15,0-2-.62-2.77a1.42,1.42,0,0,1,.26-2.2l.18-.14,2.62-2.25c1,1.48,2,2.89,2.93,4.38.2.33,0,1-.15,1.38-.06.15-.85.21-.9.12-.19-.41-.44-1-.28-1.32C183.74,96.43,182.87,95.82,182.21,95Z" transform="translate(-32.59 -80.6)"/><path d="M106.75,159q0-1.61-.1-3.21s.06-.06.06-.1c.05-3.06,3.07-3,4.61-4.69.92,1.17.44,2.25.26,3.29a29.62,29.62,0,0,1-.77,3.45,6.71,6.71,0,0,1-1.06,1.52l1.13-4.49-.37-.27a9.86,9.86,0,0,0-2.59,1.63,10.13,10.13,0,0,0-1.2,2.85Zm.81-4,.24.3,2.27-1.71-.27-.35C108.89,153.59,107.82,153.75,107.56,155Z" transform="translate(-32.59 -80.6)"/><path d="M161.86,118.17l-3.9,2.94.08.21,3.46-1.66.14.23-3.34,2.28A12.86,12.86,0,0,0,160,123.3a10.79,10.79,0,0,0,1.8.48,2.44,2.44,0,0,1-2.42,1.86c0-.39-.07-.74.06-1,.72-1.12,0-1.29-.88-1.46-1.26-.27-2.51-.56-4.08-.92l7.24-4.43Z" transform="translate(-32.59 -80.6)"/><path d="M66.28,198.31A2.12,2.12,0,0,1,68.06,200c.38,2.22.8,4.44,1.14,6.67,0,.18-.43.64-.61.62a2.5,2.5,0,0,1-1.23-.55,2.84,2.84,0,0,1-1-1.32c0-.21.69-.61,1.24-1.05Z" transform="translate(-32.59 -80.6)"/><path d="M110.89,178.87c-.18-.17-.31-.38-.4-.36-1.82.29-2.92-1.55-4.63-1.59a.77.77,0,0,1-.55-.47c0-.17.15-.47.32-.62a1.52,1.52,0,0,1,1.87-.25,20.12,20.12,0,0,0,2.73.9C111.27,176.79,111.5,177.53,110.89,178.87Z" transform="translate(-32.59 -80.6)"/><path d="M169.63,107.51a16.45,16.45,0,0,1-2-.9,5.19,5.19,0,0,1-1-1.05c-.25-.27-.51-.53-.9-.94l3.68-1.29c-.21.83-.21.83-2.42,1.61.47,1.47,1.86,1.6,3,2a1.81,1.81,0,0,1,1.28,1.3c.09.28.08.81-.08.92a1.71,1.71,0,0,1-1.17.23c-.18,0-.32-.54-.38-.86A4.92,4.92,0,0,1,169.63,107.51Z" transform="translate(-32.59 -80.6)"/><path d="M124.65,112.13c4.29-2.78,9.31-3.57,14-5.22,1.06-.37,2.09-.86,3.13-1.29l.17.42c-1.54.57-3.05,1.26-4.63,1.7a61.45,61.45,0,0,0-11.64,4.16,4,4,0,0,1-1.07.22Z" transform="translate(-32.59 -80.6)"/><path d="M179.23,119.28c0-.69,0-1.38,0-2.07-.07-1-.19-2-.32-3.06a.91.91,0,0,1,.84-1.13c.7-.13,1.44-.23,1.81.53.1.22-.18.83-.45,1a5,5,0,0,1-1.43.32v4.37Z" transform="translate(-32.59 -80.6)"/><path d="M132.27,173.68c1.63-.32,3.26-.62,4.89-1,.32-.07.6-.31.92-.4a3.47,3.47,0,0,1,.8,0c-.12.26-.19.7-.38.76-1.54.46-3.09.88-4.65,1.25a6.79,6.79,0,0,1-1.51,0Z" transform="translate(-32.59 -80.6)"/><path d="M124.65,149.56a1.89,1.89,0,0,1,2.29-1.35l1.94-5.28.51.2c-.79,2-1.53,4-2.39,6C126.6,150,125.88,150.1,124.65,149.56Z" transform="translate(-32.59 -80.6)"/><path d="M171.75,134.92l.68-2.33h.1a34.26,34.26,0,0,1-.39,3.68c-.06.29-.82.66-1.22.62a1.77,1.77,0,0,1-1.25-.81c-.3-.63.12-1.1.84-1.16C170.88,134.89,171.26,134.92,171.75,134.92Z" transform="translate(-32.59 -80.6)"/><path d="M177.37,130.51c-1.87,1.25-3.16-.18-4.65-1.06l-.11,2.07h-.15l-.15-3,.31-.15A6.16,6.16,0,0,0,177.37,130.51Z" transform="translate(-32.59 -80.6)"/><path d="M161.85,118.75c1.66.8,3,1.41,4.22,2.06.23.12.56.49.51.62a1.41,1.41,0,0,1-.68.68c-.15.07-.47-.11-.65-.25-1-.75-1.93-1.52-2.87-2.31A3.78,3.78,0,0,1,161.85,118.75Z" transform="translate(-32.59 -80.6)"/><path d="M156.41,107.13c.41,1.13.9,2.25,1.2,3.41.08.3-.36.82-.68,1.1-.13.11-.67-.1-.89-.3-.54-.5-.13-.93.27-1.21.78-.55.46-1.06.07-1.65a8,8,0,0,1-.54-1.16Z" transform="translate(-32.59 -80.6)"/><path d="M156,136.18l.69,1.95a11.75,11.75,0,0,1-1.84.33c-.14,0-.5-.7-.41-.8A14.61,14.61,0,0,1,156,136.18Z" transform="translate(-32.59 -80.6)"/><path d="M136.58,124.74c0-.22,0-.57.07-.62,1.11-.6,2.24-1.14,3.36-1.71l.26.51-3.73,1.78Z" transform="translate(-32.59 -80.6)"/><path d="M106.72,158.94c-.45.68-.87,1.37-1.36,2-.09.11-.46,0-.7,0,0-.21-.07-.54,0-.61.66-.49,1.37-.92,2.06-1.36Z" transform="translate(-32.59 -80.6)"/><path d="M128.59,142.4a9.6,9.6,0,0,1,1.47.48c.2.1.27.46.4.7-.3.06-.7.26-.87.14a7.91,7.91,0,0,1-1.11-1.14Z" transform="translate(-32.59 -80.6)"/><path d="M145.35,104.25l-2.91,1.44-.17-.36,2.94-1.37Z" transform="translate(-32.59 -80.6)"/><path class="cls-1" d="M100.58,193.22" transform="translate(-32.59 -80.6)"/><path class="cls-1" d="M99.64,189.11" transform="translate(-32.59 -80.6)"/><path class="cls-2" d="M56.65,140.7c3.59-1.84,6.88-.9,10.1,0a16.52,16.52,0,0,1,8.1,4.72" transform="translate(-32.59 -80.6)"/><path class="cls-3" d="M101.52,130.42c6.52-1.84,11-6.38,16-10.15" transform="translate(-32.59 -80.6)"/><path class="cls-3" d="M123.54,115.82c4.29-2.78,9.31-3.57,14-5.22" transform="translate(-32.59 -80.6)"/><path class="cls-3" d="M153,99.78a14.53,14.53,0,0,1-7.13,4.15" transform="translate(-32.59 -80.6)"/><path d="M157,153.56a.74.74,0,0,0,0-1.19,8.3,8.3,0,0,0-4.15-2.6,1.2,1.2,0,0,1-1.07-1.5c.09-.84.29-1.06,1-.73s1.58.87,2.4,1.24c1.16.52,2.34,1,3.52,1.44a.76.76,0,0,1,.58.94,2.78,2.78,0,0,0,.31,1.38.83.83,0,0,0,1.57.06,2.45,2.45,0,0,0-.86-2.91A13,13,0,0,0,159,149c-2-.82-4-1.68-6-2.43-1.29-.48-1.88-.32-2.11.63a3,3,0,0,0,1.72,3.39c.67.28,1.31.64,1.94,1a.48.48,0,0,1,.09.77c-.27.24-.48.44-.45.56a1.87,1.87,0,0,1,.06.32.7.7,0,0,0,.86.62,3.8,3.8,0,0,1,1.32-.17c-.25-.13.27.11,0,0" transform="translate(-32.59 -80.6)"/><path class="cls-4" d="M108.93,150.29c2.53-.94,5.05-1.68,7.66-2.37l.27-.07c.92-.25,1.84-.49,2.78-.69a5.57,5.57,0,0,0,2-.67c2.52-1.27,5.32-2,7.48-3.38a52.89,52.89,0,0,0,6.06-4.85,2.56,2.56,0,0,0,.93-1.17c.58-2.32-3.66,1.89-4.13,2.28a37.1,37.1,0,0,1-6.07,4.09,39.61,39.61,0,0,1-13.74,4.44,15.43,15.43,0,0,0-4.13.84,12,12,0,0,0-2.45,1.54c-4.87,3.65-12.67,7.75-16,12.58a8.8,8.8,0,0,0,1.9-1c1.33-.88,2.68-1.75,4-2.67a70.53,70.53,0,0,0,5.68-4.26,28.93,28.93,0,0,1,5.45-3.58l.13.21a11.21,11.21,0,0,1,1.07-.47C107.88,150.76,108.21,150.55,108.93,150.29Z" transform="translate(-32.59 -80.6)"/><path class="cls-4" d="M140.69,112.48a.46.46,0,0,0-.68-.29q-.88.57-1.79,1.12c-2,1.19-4,2.32-6,3.48-4,2.27-8.37,3.25-12.71,4.89l-3,1.11c-3,1.14-6.1,2.54-8.94,3.9-3.33,1.6-6.6,3.27-9.83,5a27.18,27.18,0,0,0-4,2.47c-.61.47-.71,1.2-1.13,2a5.15,5.15,0,0,0,.84-.35c2.6-2,4.85-2.57,8.23-4,2.41-1,5.24-3.55,7.61-4.64,4.11-1.88,8.74-2.65,12.75-5.07a32.28,32.28,0,0,1,10.73-4.25c2.2-.54,4-2.15,5.9-3.31l1.61-1a.87.87,0,0,0,.34-1Z" transform="translate(-32.59 -80.6)"/><path d="M138.21,133.8a2,2,0,0,1,0-.52c.44,0,.89,0,1.34,0,.7,0,1.06-.13,1.17-.95a10.86,10.86,0,0,0-.82-6.28,1.53,1.53,0,0,1,.61-2.28c.9-.58,1.28-.54,1.57.49s.43,2.3.73,3.42c.43,1.59.94,3.15,1.45,4.72a1,1,0,0,1-.45,1.33,3.45,3.45,0,0,0-1.11,1.41c-.46,1,.15,1.76,1.23,1.64a3.06,3.06,0,0,0,2.18-3.18,17.2,17.2,0,0,0-.48-1.89c-.81-2.67-1.57-5.36-2.47-8-.71-2.1-1.51-2.31-3.23-1.11C138,124,138.1,124,138.83,126.2c.41,1.27.6,2.62.88,3.91-.8-.08-1.64-.35-1.78-.14-.59.84-1,.58-1.3.18.6,1.62.89,3.35,1.86,4.71C138.41,134.5,138.32,134.15,138.21,133.8Z" transform="translate(-32.59 -80.6)"/><path d="M168.63,136.35c-.51-.7-1.74-.27-2.5.28-3.41,2.43-6.82,4.88-10.26,7.27-.09-.69-1.06-.65-1.68-.38-3.57,1.56-6,3-10,3.29a48.93,48.93,0,0,0-9.75,1.45c-2.18.59-4.72,1.57-7,1.59-6.11.09-12.2,5.91-17.29,9.12-3.5,2.29-7.06,4.41-10.55,6.7a5.43,5.43,0,0,0-1.24,1.52.28.28,0,0,0,.25.43,3,3,0,0,0,1.06-.42c11-6.32,22.95-16.2,35-18.23a.27.27,0,0,1,.3.33.27.27,0,0,0,.31.32c1.58-.32,3.28.24,4.6-1,2.77,1.19,5.07.21,7.72-.63a60.47,60.47,0,0,0,21.13-11.45A1,1,0,0,0,168.63,136.35Z" transform="translate(-32.59 -80.6)"/><path d="M166.71,138.27c-.56-.39-1.75,0-2.47.46-3.2,1.94-6.39,3.89-9.62,5.8-.15-.43-1.11-.3-1.7-.05-3.43,1.4-5.74,2.6-9.72,3.24a74.27,74.27,0,0,0-9.57,2,43.86,43.86,0,0,1-6.82,1.81c-6.07.75-11.66,5.15-16.46,7.78-3.29,1.86-6.66,3.61-10,5.47a4.36,4.36,0,0,0-1.11,1.11c-.12.14.06.3.28.25a4.05,4.05,0,0,0,1-.39c10.46-5.28,21.53-12.94,33.38-15.61.18,0,.34.05.32.18s.16.21.34.17c4.05-1,8.15-1.14,12.12-2.44a74.76,74.76,0,0,0,20.09-9.7Z" transform="translate(-32.59 -80.6)"/><path d="M104.49,130.76c2.24-.28,4.89-.89,7.14-.59,6.06.77,12.91-4.13,18.4-6.59,3.78-1.77,7.61-3.37,11.39-5.14a5.43,5.43,0,0,0,1.44-1.33.28.28,0,0,0-.18-.46,3,3,0,0,0-1.11.27c-11.81,4.7-25,12.79-37.26,13.1a.27.27,0,0,1-.25-.37.27.27,0,0,0-.26-.36c-1.55.09-3.11-.64-4.54.25L98.9,131A38.59,38.59,0,0,0,104.49,130.76Z" transform="translate(-32.59 -80.6)"/><path d="M105.46,129.41a43.86,43.86,0,0,1,7-.83c6.11.11,12.27-3.46,17.4-5.38,3.52-1.37,7.11-2.64,10.63-4a4.36,4.36,0,0,0,1.26-.94c.13-.12,0-.3-.24-.29a4.05,4.05,0,0,0-1.06.24c-11.1,3.75-23.14,9.77-35.25,10.74-.18,0-.33-.1-.3-.22s-.12-.23-.31-.22c-1.72.17-3.42.2-5.12.22L99.16,130A60,60,0,0,0,105.46,129.41Z" transform="translate(-32.59 -80.6)"/><path d="M87.22,212.79c-.53-.79-1.28-1.43-1.85-2.21q-2-2.66-3.83-5.39a2.57,2.57,0,0,1-.19-1l1.2.3A22.9,22.9,0,0,0,80.67,202c-.38-.45-.79-.87-1.45-.38a3.11,3.11,0,0,0,.08.35,30,30,0,0,0,5.15,9.11c.72.89.71.94-.25,1.66.3.31.56.64.87.92.74.67.78,1,.27,1.55l1.81,1.47.21-.42A3.43,3.43,0,0,0,87.22,212.79Z" transform="translate(-32.59 -80.6)"/></svg>